<?xml version="1.0" encoding="UTF-8"?>
<svg version="1.1" xmlns="http://www.w3.org/2000/svg" width="500" height="500">
<path d="M0 0 C1.30005478 -0.00287018 2.60010956 -0.00574036 3.93955994 -0.00869751 C6.67702056 -0.01309368 9.41418538 -0.00677725 12.15161133 0.00732422 C15.64048538 0.02443203 19.12866765 0.01454834 22.61751652 -0.00339317 C25.97423153 -0.0169068 29.33076541 -0.00741624 32.6875 0 C34.55185448 -0.00910904 34.55185448 -0.00910904 36.45387268 -0.0184021 C45.73028434 0.0564723 52.75415452 1.26050411 59.73828125 7.734375 C67.28379288 15.89272007 66.42943749 26.08712972 66.41015625 36.52734375 C66.41111298 37.67581284 66.4120697 38.82428192 66.41305542 40.0075531 C66.41373333 42.4255275 66.41190627 44.84350375 66.40771484 47.26147461 C66.40235621 50.95235291 66.40767563 54.6431098 66.4140625 58.33398438 C66.41340175 60.69010443 66.41212064 63.04622442 66.41015625 65.40234375 C66.41218048 66.50042862 66.41420471 67.59851349 66.41629028 68.72987366 C66.38631294 78.57044009 66.01185141 85.71580039 59.27734375 93.3984375 C53.49841945 98.11411849 48.79229851 100.50749775 41.28051758 100.57543945 C40.04525833 100.58827469 38.80999908 100.60110992 37.53730774 100.61433411 C36.18633426 100.62250388 34.83535621 100.62994716 33.484375 100.63671875 C32.46090249 100.64283204 32.46090249 100.64283204 31.41675377 100.64906883 C27.80249715 100.66991611 24.18827831 100.68422138 20.57397461 100.69360352 C16.85621076 100.70464177 13.13904977 100.73901454 9.4214983 100.77877522 C6.54999241 100.80503263 3.67862791 100.81330354 0.80701256 100.81688499 C-0.56242234 100.82173056 -1.93185179 100.83328626 -3.30116844 100.85192299 C-13.74163792 100.98514356 -20.88453346 99.80110902 -28.72265625 92.3984375 C-35.13683316 84.15163861 -35.02191454 76.33062769 -34.98828125 66.2734375 C-34.9901947 65.01257324 -34.99210815 63.75170898 -34.99407959 62.45263672 C-34.99543748 59.79315301 -34.99278274 57.13403985 -34.98339844 54.47460938 C-34.97200467 51.08211514 -34.97857235 47.68993748 -34.99054337 44.29745483 C-34.99954721 41.03943804 -34.99322553 37.78145844 -34.98828125 34.5234375 C-34.99232971 33.31284668 -34.99637817 32.10225586 -35.00054932 30.85498047 C-34.9680451 24.98719049 -34.75184945 19.92783784 -32.72265625 14.3984375 C-32.06265625 14.3984375 -31.40265625 14.3984375 -30.72265625 14.3984375 C-30.66078125 13.8415625 -30.59890625 13.2846875 -30.53515625 12.7109375 C-29.37457935 9.40775708 -27.32052179 7.67949017 -24.72265625 5.3984375 C-24.06265625 5.3984375 -23.40265625 5.3984375 -22.72265625 5.3984375 C-22.72265625 4.7384375 -22.72265625 4.0784375 -22.72265625 3.3984375 C-15.02820447 0.2822851 -8.24918902 -0.04037042 0 0 Z " fill="#C6AEF6" transform="translate(91.72265625,199.6015625)"/>
<path d="M0 0 C1.12350861 0.00424484 1.12350861 0.00424484 2.26971436 0.00857544 C4.65393276 0.0197399 7.03777079 0.04483719 9.421875 0.0703125 C11.04166123 0.08034715 12.66145336 0.08947215 14.28125 0.09765625 C18.24493746 0.11966695 22.20834181 0.15417075 26.171875 0.1953125 C24.851875 1.1853125 23.531875 2.1753125 22.171875 3.1953125 C21.676875 2.2053125 21.676875 2.2053125 21.171875 1.1953125 C20.511875 1.8553125 19.851875 2.5153125 19.171875 3.1953125 C19.36523438 3.76378906 19.55859375 4.33226562 19.7578125 4.91796875 C20.14839844 6.07619141 20.14839844 6.07619141 20.546875 7.2578125 C20.80210938 8.01191406 21.05734375 8.76601562 21.3203125 9.54296875 C21.60132813 10.41824219 21.88234375 11.29351562 22.171875 12.1953125 C22.70748047 13.83113281 22.70748047 13.83113281 23.25390625 15.5 C24.24171195 19.47644338 24.51633358 23.18779328 24.484375 27.2578125 C24.47809082 28.36817871 24.47809082 28.36817871 24.47167969 29.50097656 C24.32762159 36.64564497 23.03881336 43.30137995 21.171875 50.1953125 C20.90503906 51.28457031 20.63820312 52.37382812 20.36328125 53.49609375 C17.44665831 64.32000554 12.24908564 73.40704273 4.171875 81.1953125 C3.346875 82.2059375 2.521875 83.2165625 1.671875 84.2578125 C-0.66974456 87.00921549 -2.85098761 89.15832376 -5.828125 91.1953125 C-6.818125 91.1953125 -7.808125 91.1953125 -8.828125 91.1953125 C-8.828125 90.5353125 -8.828125 89.8753125 -8.828125 89.1953125 C-11.138125 88.8653125 -13.448125 88.5353125 -15.828125 88.1953125 C-14.75411392 85.28013958 -14.05002324 83.41721074 -11.828125 81.1953125 C-11.40356709 79.12753217 -11.40356709 79.12753217 -11.265625 76.8203125 C-10.91193997 72.50391157 -10.91193997 72.50391157 -10.33691406 70.38671875 C-9.2898951 65.87710158 -9.3519944 61.18098358 -9.140625 56.5703125 C-9.08068359 55.508125 -9.02074219 54.4459375 -8.95898438 53.3515625 C-8.91193359 52.33835938 -8.86488281 51.32515625 -8.81640625 50.28125 C-8.74740112 48.8897876 -8.74740112 48.8897876 -8.67700195 47.47021484 C-8.59068107 44.99363543 -8.59068107 44.99363543 -10.828125 43.1953125 C-11.35046892 41.16907731 -11.79825339 39.12324971 -12.203125 37.0703125 C-13.40471912 31.50600743 -15.10897386 27.16479561 -17.828125 22.1953125 C-17.828125 21.5353125 -17.828125 20.8753125 -17.828125 20.1953125 C-18.488125 20.1953125 -19.148125 20.1953125 -19.828125 20.1953125 C-19.828125 21.1853125 -19.828125 22.1753125 -19.828125 23.1953125 C-20.818125 23.1953125 -21.808125 23.1953125 -22.828125 23.1953125 C-22.498125 19.8953125 -22.168125 16.5953125 -21.828125 13.1953125 C-21.168125 13.1953125 -20.508125 13.1953125 -19.828125 13.1953125 C-19.7353125 12.36 -19.7353125 12.36 -19.640625 11.5078125 C-18.4800481 8.20463208 -16.42599054 6.47636517 -13.828125 4.1953125 C-13.168125 4.1953125 -12.508125 4.1953125 -11.828125 4.1953125 C-11.828125 3.5353125 -11.828125 2.8753125 -11.828125 2.1953125 C-8.06917964 -0.26245947 -4.32858954 -0.06179565 0 0 Z " fill="#CEB9F8" transform="translate(80.828125,200.8046875)"/>
<path d="M0 0 C0 2.97 0 5.94 0 9 C-0.99 9 -1.98 9 -3 9 C-2.86142159 12.12536637 -2.71290431 15.25018217 -2.5625 18.375 C-2.52318359 19.26445312 -2.48386719 20.15390625 -2.44335938 21.0703125 C-2.40146484 21.92109375 -2.35957031 22.771875 -2.31640625 23.6484375 C-2.27974854 24.43395996 -2.24309082 25.21948242 -2.20532227 26.02880859 C-2.109109 28.07523496 -2.109109 28.07523496 -1 30 C0.65 29.67 2.3 29.34 4 29 C4.86419223 26.40742331 5.17580932 24.65962293 5.31640625 21.98828125 C5.35830078 21.23095703 5.40019531 20.47363281 5.44335938 19.69335938 C5.48267578 18.90767578 5.52199219 18.12199219 5.5625 17.3125 C5.60568359 16.51521484 5.64886719 15.71792969 5.69335938 14.89648438 C5.79927368 12.93118553 5.90012551 10.96561504 6 9 C5.01 9 4.02 9 3 9 C3 6.03 3 3.06 3 0 C9.74486494 0.04414627 16.48879322 0.11397509 23.2331543 0.20751953 C25.52702374 0.23572882 27.82099038 0.25694353 30.11499023 0.27099609 C33.41440593 0.29242551 36.71265302 0.33907783 40.01171875 0.390625 C41.03585373 0.39185364 42.05998871 0.39308228 43.11515808 0.39434814 C50.25807406 0.54097088 50.25807406 0.54097088 54.10473633 2.92089844 C56.8515454 5.93414409 57.82270892 7.83494434 58.4375 11.875 C57.82914063 16.22042409 55.99643739 17.85374074 53 21 C53.474375 21.391875 53.94875 21.78375 54.4375 22.1875 C56.35179633 24.40808374 56.61266988 26.13375709 57 29 C58.98 28.67 60.96 28.34 63 28 C64.41687119 32.25061356 63.19320039 34.71851625 62 39 C61.34 39 60.68 39 60 39 C60 39.66 60 40.32 60 41 C53.71892509 42.08294395 49.81826375 41.90913188 44 39 C43.67 38.01 43.34 37.02 43 36 C42.67 37.65 42.34 39.3 42 41 C35.4 41 28.8 41 22 41 C22 38.36 22 35.72 22 33 C22.99 33 23.98 33 25 33 C25 25.08 25 17.16 25 9 C23.02 9 21.04 9 19 9 C19.02320313 9.88300781 19.04640625 10.76601562 19.0703125 11.67578125 C19.3497017 30.25516292 19.3497017 30.25516292 15 37.1875 C13 39 13 39 11 39 C11 39.66 11 40.32 11 41 C3.34248432 43.04200418 -4.06881273 42.88146487 -11 39 C-14.71500563 36.08823883 -15.83519328 33.53316556 -17 29 C-17.23236266 25.53675814 -17.18933167 22.09396159 -17.125 18.625 C-17.11597656 17.69816406 -17.10695312 16.77132812 -17.09765625 15.81640625 C-17.07422937 13.54399923 -17.04142748 11.2721382 -17 9 C-17.99 9 -18.98 9 -20 9 C-20 6.36 -20 3.72 -20 1 C-17.04170322 0.832662 -14.08336635 0.66609948 -11.125 0.5 C-9.86236328 0.42845703 -9.86236328 0.42845703 -8.57421875 0.35546875 C-7.76855469 0.31035156 -6.96289062 0.26523438 -6.1328125 0.21875 C-5.38918457 0.17685547 -4.64555664 0.13496094 -3.87939453 0.09179688 C-2.58744125 0.0286929 -1.29349349 0 0 0 Z M21 2 C21 3.65 21 5.3 21 7 C21.33 7 21.66 7 22 7 C22 5.35 22 3.7 22 2 C21.67 2 21.34 2 21 2 Z M39 9 C39 11.97 39 14.94 39 18 C41.49552484 17.21869929 41.49552484 17.21869929 44 16 C45.33304698 13.10813214 45.33304698 13.10813214 44.0625 10.8125 C43.711875 10.214375 43.36125 9.61625 43 9 C41.68 9 40.36 9 39 9 Z M39 25 C39 27.64 39 30.28 39 33 C39.99 33 40.98 33 42 33 C42 30.69 42 28.38 42 26 C41.01 25.67 40.02 25.34 39 25 Z " fill="#F0EDF2" transform="translate(239,217)"/>
<path d="M0 0 C5.41042742 2.72433183 8.20146505 5.93338964 10.5 11.625 C11.83894799 18.92835269 11.62699572 25.3614498 9.1875 32.375 C8.5275 32.375 7.8675 32.375 7.1875 32.375 C6.960625 33.138125 6.73375 33.90125 6.5 34.6875 C4.88857285 37.98708893 3.46440673 38.81456823 0.1875 40.375 C-7.9148955 42.90042197 -16.24304727 41.86859357 -23.8125 38.375 C-23.8125 37.715 -23.8125 37.055 -23.8125 36.375 C-24.8025 36.045 -25.7925 35.715 -26.8125 35.375 C-31.23139573 29.15307658 -31.96673198 21.7487299 -30.8125 14.375 C-29.46909182 10.81891953 -27.81248666 7.60354989 -25.8125 4.375 C-25.1525 4.375 -24.4925 4.375 -23.8125 4.375 C-23.8125 3.715 -23.8125 3.055 -23.8125 2.375 C-15.78691945 -1.9673431 -8.68815915 -3.42915734 0 0 Z M-11.8125 8.375 C-11.8125 9.035 -11.8125 9.695 -11.8125 10.375 C-12.4725 10.375 -13.1325 10.375 -13.8125 10.375 C-14.82509619 13.74492013 -14.97805609 16.86397481 -15 20.375 C-15.01417969 21.40625 -15.02835937 22.4375 -15.04296875 23.5 C-14.81305192 26.36811498 -14.38395652 27.99014874 -12.8125 30.375 C-10.92399645 31.45142709 -10.92399645 31.45142709 -8.8125 31.375 C-6.8543364 29.85198387 -5.92136989 28.59273977 -4.8125 26.375 C-4.68992539 24.41950744 -4.63697612 22.45929382 -4.625 20.5 C-4.60373047 18.92605469 -4.60373047 18.92605469 -4.58203125 17.3203125 C-4.80745063 14.43952929 -5.32285683 12.81259792 -6.8125 10.375 C-7.4725 10.375 -8.1325 10.375 -8.8125 10.375 C-8.8125 9.715 -8.8125 9.055 -8.8125 8.375 C-9.8025 8.375 -10.7925 8.375 -11.8125 8.375 Z " fill="#ECE9EF" transform="translate(332.8125,217.625)"/>
<path d="M0 0 C4.58328022 -0.05802751 9.16646604 -0.09360593 13.75 -0.125 C15.05195313 -0.14175781 16.35390625 -0.15851563 17.6953125 -0.17578125 C18.94570313 -0.18222656 20.19609375 -0.18867188 21.484375 -0.1953125 C22.63647461 -0.20578613 23.78857422 -0.21625977 24.97558594 -0.22705078 C27.95473434 -0.00339821 29.55642845 0.32811918 32 2 C34.78030572 6.17045858 35.29986321 9.98663274 34.5625 14.9375 C34.2840625 15.9584375 34.2840625 15.9584375 34 17 C33.34 17 32.68 17 32 17 C32 17.66 32 18.32 32 19 C31.34 19 30.68 19 30 19 C30.639375 19.7425 31.27875 20.485 31.9375 21.25 C33.78333407 23.7111121 34.56069174 25.03466926 35 28 C36.98 28 38.96 28 41 28 C40.88541307 29.43836751 40.75790884 30.87570966 40.625 32.3125 C40.55539062 33.11300781 40.48578125 33.91351563 40.4140625 34.73828125 C40 37 40 37 38 40 C33.4086284 41.2628527 28.57626963 41.32859441 24 40 C24 39.34 24 38.68 24 38 C23.34 38 22.68 38 22 38 C21.34 37.01 20.68 36.02 20 35 C19.67 36.65 19.34 38.3 19 40 C12.4 40 5.8 40 -1 40 C-0.67 37.36 -0.34 34.72 0 32 C0.66 32 1.32 32 2 32 C2 24.08 2 16.16 2 8 C1.01 7.67 0.02 7.34 -1 7 C-0.67 4.69 -0.34 2.38 0 0 Z M16 8 C16 10.97 16 13.94 16 17 C17.98 16.34 19.96 15.68 22 15 C22.16687448 12.58354218 22.16687448 12.58354218 22 10 C21.34 9.34 20.68 8.68 20 8 C18.68 8 17.36 8 16 8 Z M16 24 C16 26.64 16 29.28 16 32 C17.32 32 18.64 32 20 32 C20 30.02 20 28.04 20 26 C18.68 25.34 17.36 24.68 16 24 Z " fill="#EEEAF1" transform="translate(345,218)"/>
<path d="M0 0 C7.59 0 15.18 0 23 0 C24.90665754 5.08442012 26.58569311 9.81420808 28 15 C29.11171798 18.98508136 30.25706815 22.89091202 31.75 26.75 C33 30 33 30 33 32 C34.32 31.67 35.64 31.34 37 31 C37 33.97 37 36.94 37 40 C28.75 40 20.5 40 12 40 C12 37.36 12 34.72 12 32 C13.65 32 15.3 32 17 32 C17 31.01 17 30.02 17 29 C15.35333797 29.1135629 13.70763918 29.24117381 12.0625 29.375 C10.68771484 29.47941406 10.68771484 29.47941406 9.28515625 29.5859375 C8.53105469 29.72257812 7.77695313 29.85921875 7 30 C6.67 30.66 6.34 31.32 6 32 C7.32 32 8.64 32 10 32 C10 34.64 10 37.28 10 40 C3.73 40 -2.54 40 -9 40 C-9 37.36 -9 34.72 -9 32 C-7.68 32 -6.36 32 -5 32 C-4.88785156 31.19304687 -4.77570313 30.38609375 -4.66015625 29.5546875 C-3.87130229 25.30701232 -2.68732556 21.25607607 -1.4375 17.125 C-1.20353516 16.34125 -0.96957031 15.5575 -0.72851562 14.75 C-0.15556462 12.83236805 0.42177191 10.91604734 1 9 C0.67 8.67 0.34 8.34 0 8 C0 5.36 0 2.72 0 0 Z M11 14 C10.67 16.31 10.34 18.62 10 21 C11.32 21 12.64 21 14 21 C13.65772428 18.02934491 13.65772428 18.02934491 13 15 C12.34 14.67 11.68 14.34 11 14 Z " fill="#F0EDF2" transform="translate(182,218)"/>
<path d="M0 0 C7.59 0 15.18 0 23 0 C25.91623824 7.56061765 28.23738105 15.16232031 30.33666992 22.97998047 C31.39807014 27.08743219 31.39807014 27.08743219 33 31 C33.99 31 34.98 31 36 31 C36 33.97 36 36.94 36 40 C28.08 40 20.16 40 12 40 C12.33 37.36 12.66 34.72 13 32 C14.32 32 15.64 32 17 32 C17 31.01 17 30.02 17 29 C13.37 29 9.74 29 6 29 C6 29.99 6 30.98 6 32 C7.32 32 8.64 32 10 32 C10 34.64 10 37.28 10 40 C3.4 40 -3.2 40 -10 40 C-9.67 37.36 -9.34 34.72 -9 32 C-8.01 31.67 -7.02 31.34 -6 31 C-5.02449747 29.04703798 -5.02449747 29.04703798 -4.39453125 26.6328125 C-4.13349609 25.74722656 -3.87246094 24.86164063 -3.60351562 23.94921875 C-3.34248047 23.01722656 -3.08144531 22.08523437 -2.8125 21.125 C-2.53986328 20.20074219 -2.26722656 19.27648437 -1.98632812 18.32421875 C-0.47860021 13.24348408 -0.47860021 13.24348408 0 8 C0 5.36 0 2.72 0 0 Z M11 13 C10.34 15.64 9.68 18.28 9 21 C10.65 21 12.3 21 14 21 C13.74438677 18.6568787 13.40729228 16.32156597 13 14 C12.34 13.67 11.68 13.34 11 13 Z " fill="#F2F0F4" transform="translate(395,218)"/>
<path d="M0 0 C0 2.97 0 5.94 0 9 C-0.99 9 -1.98 9 -3 9 C-2.86142159 12.12536637 -2.71290431 15.25018217 -2.5625 18.375 C-2.52318359 19.26445312 -2.48386719 20.15390625 -2.44335938 21.0703125 C-2.40146484 21.92109375 -2.35957031 22.771875 -2.31640625 23.6484375 C-2.27974854 24.43395996 -2.24309082 25.21948242 -2.20532227 26.02880859 C-2.109109 28.07523496 -2.109109 28.07523496 -1 30 C0.65 29.67 2.3 29.34 4 29 C4.86419223 26.40742331 5.17580932 24.65962293 5.31640625 21.98828125 C5.35830078 21.23095703 5.40019531 20.47363281 5.44335938 19.69335938 C5.48267578 18.90767578 5.52199219 18.12199219 5.5625 17.3125 C5.60568359 16.51521484 5.64886719 15.71792969 5.69335938 14.89648438 C5.79927368 12.93118553 5.90012551 10.96561504 6 9 C5.01 9 4.02 9 3 9 C3 6.03 3 3.06 3 0 C9.6 0.33 16.2 0.66 23 1 C23 3.31 23 5.62 23 8 C23.99 8 24.98 8 26 8 C26 16.25 26 24.5 26 33 C25.67 33 25.34 33 25 33 C25 25.08 25 17.16 25 9 C23.02 9 21.04 9 19 9 C19.02320313 9.88300781 19.04640625 10.76601562 19.0703125 11.67578125 C19.3497017 30.25516292 19.3497017 30.25516292 15 37.1875 C13 39 13 39 11 39 C11 39.66 11 40.32 11 41 C3.34248432 43.04200418 -4.06881273 42.88146487 -11 39 C-14.71500563 36.08823883 -15.83519328 33.53316556 -17 29 C-17.23236266 25.53675814 -17.18933167 22.09396159 -17.125 18.625 C-17.11597656 17.69816406 -17.10695312 16.77132812 -17.09765625 15.81640625 C-17.07422937 13.54399923 -17.04142748 11.2721382 -17 9 C-17.99 9 -18.98 9 -20 9 C-20 6.36 -20 3.72 -20 1 C-17.04170322 0.832662 -14.08336635 0.66609948 -11.125 0.5 C-9.86236328 0.42845703 -9.86236328 0.42845703 -8.57421875 0.35546875 C-7.76855469 0.31035156 -6.96289062 0.26523438 -6.1328125 0.21875 C-5.38918457 0.17685547 -4.64555664 0.13496094 -3.87939453 0.09179688 C-2.58744125 0.0286929 -1.29349349 0 0 0 Z M21 2 C21 3.65 21 5.3 21 7 C21.33 7 21.66 7 22 7 C22 5.35 22 3.7 22 2 C21.67 2 21.34 2 21 2 Z " fill="#E5E0E9" transform="translate(239,217)"/>
<path d="M0 0 C3 1 3 1 4.28125 2.93359375 C7.15144716 8.83037702 9.33925853 14.65407731 11 21 C11.33 21 11.66 21 12 21 C13.34275621 26.82855657 12.89458473 32.45854787 12.5625 38.375 C12.51029297 39.39722656 12.45808594 40.41945313 12.40429688 41.47265625 C12.27530513 43.98213196 12.14037142 46.4911394 12 49 C11.34 49 10.68 49 10 49 C9.87625 49.928125 9.7525 50.85625 9.625 51.8125 C9 55 9 55 7 58 C3.875 59.1875 3.875 59.1875 1 60 C0.855625 58.865625 0.71125 57.73125 0.5625 56.5625 C0.38828522 53.19222799 0.38828522 53.19222799 -1 52 C-1.94292292 46.12483309 -2.13443538 40.40938665 -2.09765625 34.46875 C-2.0962413 33.59222778 -2.09482635 32.71570557 -2.09336853 31.81262207 C-2.08781768 29.04171179 -2.07527461 26.27088543 -2.0625 23.5 C-2.05747864 21.60937618 -2.05291685 19.71875107 -2.04882812 17.828125 C-2.0378644 13.21871817 -2.02063425 8.60937327 -2 4 C-1.34 3.67 -0.68 3.34 0 3 C0 2.01 0 1.02 0 0 Z " fill="#C5ACF7" transform="translate(60,220)"/>
<path d="M0 0 C0.33 0 0.66 0 1 0 C1.02505615 1.26070312 1.0501123 2.52140625 1.07592773 3.8203125 C1.17052461 8.52434411 1.27061501 13.22824593 1.37231445 17.93212891 C1.41546649 19.96302237 1.45715433 21.99394752 1.49731445 24.02490234 C1.55549812 26.95419844 1.61905072 29.88333794 1.68359375 32.8125 C1.70030624 33.71178223 1.71701874 34.61106445 1.73423767 35.53759766 C1.8777718 41.72858971 2.34534883 47.72674416 3.5625 53.8125 C4 56 4 56 4 59 C4.99 58.34 5.98 57.68 7 57 C7.99 57 8.98 57 10 57 C10.99 54.03 11.98 51.06 13 48 C13.66 48.33 14.32 48.66 15 49 C14.68817931 50.41681634 14.37551263 51.83344651 14.0625 53.25 C13.88847656 54.03890625 13.71445313 54.8278125 13.53515625 55.640625 C13.27025391 56.80851562 13.27025391 56.80851562 13 58 C12.8453125 58.70125 12.690625 59.4025 12.53125 60.125 C11.79992924 62.70613208 10.43667866 64.75128557 9 67 C10.98 67.66 12.96 68.32 15 69 C15 69.66 15 70.32 15 71 C15.763125 70.505 16.52625 70.01 17.3125 69.5 C20 68 20 68 23 68 C22.505 68.433125 22.01 68.86625 21.5 69.3125 C19.66781808 70.99740483 19.66781808 70.99740483 20 74 C21.41633336 74.16947579 22.83308533 74.33545507 24.25 74.5 C25.03890625 74.5928125 25.8278125 74.685625 26.640625 74.78125 C29.26890397 75.06154619 29.26890397 75.06154619 33 75 C33 75.66 33 76.32 33 77 C35.27349253 76.57653574 37.54376047 76.13573121 39.8125 75.6875 C41.07707031 75.44386719 42.34164062 75.20023437 43.64453125 74.94921875 C46.9247639 74.02128332 47.88750739 73.49165794 50 71 C52.6875 70.3125 52.6875 70.3125 55 70 C53.68 72.31 52.36 74.62 51 77 C52.03125 76.814375 53.0625 76.62875 54.125 76.4375 C58 76 58 76 60.5625 76.46875 C65.34341884 77.20761928 70.04596269 77.10503217 74.875 77.0625 C75.84953125 77.05798828 76.8240625 77.05347656 77.828125 77.04882812 C80.21881434 77.03710906 82.6093744 77.02070219 85 77 C81.51676386 79.32215743 80.11907263 79.26169783 76.00317383 79.29052734 C74.76791458 79.30328705 73.53265533 79.31604675 72.25996399 79.32919312 C70.908988 79.33225179 69.55800991 79.33447901 68.20703125 79.3359375 C66.81800703 79.34236733 65.42898416 79.34909583 64.03996277 79.35610962 C61.12548691 79.36808862 58.2111296 79.37179012 55.29663086 79.37060547 C51.57882143 79.37040293 47.86178205 79.39763338 44.14415455 79.43214989 C41.27262451 79.45450016 38.40127688 79.45844045 35.52966881 79.45738602 C34.16024831 79.45973253 32.79082205 79.46850219 31.42148781 79.48405075 C20.99131913 79.59133515 13.8295105 78.3945377 6 71 C-0.48579144 62.6611253 -0.28044507 54.79402619 -0.1953125 44.62890625 C-0.1924826 43.35144028 -0.18965271 42.0739743 -0.18673706 40.75779724 C-0.17747007 37.38266422 -0.15954066 34.00780796 -0.1373291 30.63275146 C-0.11676863 27.18032201 -0.10771366 23.72786382 -0.09765625 20.27539062 C-0.07564914 13.51685137 -0.04221125 6.75844164 0 0 Z " fill="#5F31B8" transform="translate(57,221)"/>
<path d="M0 0 C0.99 0 1.98 0 3 0 C6 5.625 6 5.625 6 9 C6.66 9 7.32 9 8 9 C8.33 6.03 8.66 3.06 9 0 C10.32 0 11.64 0 13 0 C13.66 1.32 14.32 2.64 15 4 C15.66 2.68 16.32 1.36 17 0 C22 0 27 0 32 0 C32 0.99 32 1.98 32 3 C31.34 3 30.68 3 30 3 C29.21717352 4.79199472 29.21717352 4.79199472 29 7 C30.3916876 9.13344768 30.3916876 9.13344768 32 11 C32 11.66 32 12.32 32 13 C30.63875 12.7215625 30.63875 12.7215625 29.25 12.4375 C25.8491925 11.77576292 25.8491925 11.77576292 22 13 C22 9.7 22 6.4 22 3 C21.34 3 20.68 3 20 3 C20 6.3 20 9.6 20 13 C18.35 13 16.7 13 15 13 C15 12.01 15 11.02 15 10 C14.01 10 13.02 10 12 10 C12 10.99 12 11.98 12 13 C9.36 13 6.72 13 4 13 C4 12.34 4 11.68 4 11 C2.8553125 11.495 2.8553125 11.495 1.6875 12 C-1 13 -1 13 -4 13 C-4 11.02 -4 9.04 -4 7 C-3.34 7 -2.68 7 -2 7 C-1.855625 6.401875 -1.71125 5.80375 -1.5625 5.1875 C-1.1127561 3.43849596 -0.57107659 1.71322977 0 0 Z M1 6 C2 8 2 8 2 8 Z " fill="#C1BBD2" transform="translate(188,268)"/>
<path d="M0 0 C2.475 0.495 2.475 0.495 5 1 C7.63804589 0.60602665 7.63804589 0.60602665 10 0 C14.33333333 0 18.66666667 0 23 0 C23 0.99 23 1.98 23 3 C21.68 3 20.36 3 19 3 C19 6.3 19 9.6 19 13 C17.68 13 16.36 13 15 13 C15 9.7 15 6.4 15 3 C13.35 3 11.7 3 10 3 C10 6.3 10 9.6 10 13 C8.68 13 7.36 13 6 13 C5.67 12.34 5.34 11.68 5 11 C4.67 11.66 4.34 12.32 4 13 C2.68 13 1.36 13 0 13 C0 8.71 0 4.42 0 0 Z M6 4 C7 6 7 6 7 6 Z " fill="#968DAD" transform="translate(371,268)"/>
<path d="M0 0 C0.33 0 0.66 0 1 0 C1.02505615 1.26070312 1.0501123 2.52140625 1.07592773 3.8203125 C1.17052461 8.52434411 1.27061501 13.22824593 1.37231445 17.93212891 C1.41546649 19.96302237 1.45715433 21.99394752 1.49731445 24.02490234 C1.55549812 26.95419844 1.61905072 29.88333794 1.68359375 32.8125 C1.70030624 33.71178223 1.71701874 34.61106445 1.73423767 35.53759766 C1.8777718 41.72858971 2.34534883 47.72674416 3.5625 53.8125 C4 56 4 56 4 59 C4.99 58.34 5.98 57.68 7 57 C7.99 57 8.98 57 10 57 C10.99 54.03 11.98 51.06 13 48 C13.66 48.33 14.32 48.66 15 49 C14.68817931 50.41681634 14.37551263 51.83344651 14.0625 53.25 C13.88847656 54.03890625 13.71445313 54.8278125 13.53515625 55.640625 C13.27025391 56.80851562 13.27025391 56.80851562 13 58 C12.896875 58.721875 12.79375 59.44375 12.6875 60.1875 C12 62 12 62 10.15234375 63.046875 C9.05599609 63.39492188 9.05599609 63.39492188 7.9375 63.75 C7.20402344 63.99234375 6.47054687 64.2346875 5.71484375 64.484375 C5.14894531 64.65453125 4.58304688 64.8246875 4 65 C3.01 61.535 3.01 61.535 2 58 C1.34 58 0.68 58 0 58 C0 38.86 0 19.72 0 0 Z " fill="#6A49B4" transform="translate(57,221)"/>
<path d="M0 0 C1.32 0 2.64 0 4 0 C4.66 1.65 5.32 3.3 6 5 C6.66 3.35 7.32 1.7 8 0 C9.32 0 10.64 0 12 0 C12 4.29 12 8.58 12 13 C7.73499324 14.42166892 4.44646526 13.57997373 0 13 C0 8.71 0 4.42 0 0 Z M8 9 C9 11 9 11 9 11 Z " fill="#C4BCD0" transform="translate(345,268)"/>
<path d="M0 0 C3.07624472 0.74479287 3.07624472 0.74479287 7.6875 -0.5 C7.6875 3.79 7.6875 8.08 7.6875 12.5 C2.6875 11.5 2.6875 11.5 1.6875 10.5 C1.3575 11.16 1.0275 11.82 0.6875 12.5 C-0.9625 12.17 -2.6125 11.84 -4.3125 11.5 C-4.3125 7.87 -4.3125 4.24 -4.3125 0.5 C-2.3125 -0.5 -2.3125 -0.5 0 0 Z M3.6875 3.5 C4.6875 5.5 4.6875 5.5 4.6875 5.5 Z " fill="#CFC9D4" transform="translate(230.3125,268.5)"/>
<path d="M0 0 C3.3 0 6.6 0 10 0 C10 4.29 10 8.58 10 13 C6 13 6 13 4.25 11.5 C3.8375 11.005 3.425 10.51 3 10 C3 10.99 3 11.98 3 13 C1.35 12.67 -0.3 12.34 -2 12 C-1.85904936 10.3745692 -1.71207913 8.74965949 -1.5625 7.125 C-1.48128906 6.22007812 -1.40007812 5.31515625 -1.31640625 4.3828125 C-1 2 -1 2 0 0 Z M6 3 C7 6 7 6 7 6 Z " fill="#B6ADC2" transform="translate(285,268)"/>
<path d="M0 0 C0.99 0.66 1.98 1.32 3 2 C3.29296875 4.6015625 3.29296875 4.6015625 3.1875 7.625 C3.16042969 8.62789063 3.13335937 9.63078125 3.10546875 10.6640625 C3.07066406 11.43492187 3.03585938 12.20578125 3 13 C-4.27272727 14.45454545 -4.27272727 14.45454545 -7.5 12.4375 C-9.42974471 9.30166485 -9.60394169 7.62365014 -9 4 C-6.39657511 0.33592052 -4.4590387 -0.68600595 0 0 Z M-4 3 C-4.33 4.32 -4.66 5.64 -5 7 C-3.68 6.34 -2.36 5.68 -1 5 C-1.33 4.34 -1.66 3.68 -2 3 C-2.66 3 -3.32 3 -4 3 Z " fill="#BAB4CC" transform="translate(249,268)"/>
<path d="M0 0 C3.13400486 0.49160861 5.15469072 0.30280246 8.1875 -0.5 C8.1875 0.49 8.1875 1.48 8.1875 2.5 C7.5275 2.5 6.8675 2.5 6.1875 2.5 C5.40467352 4.29199472 5.40467352 4.29199472 5.1875 6.5 C6.5791876 8.63344768 6.5791876 8.63344768 8.1875 10.5 C8.1875 11.16 8.1875 11.82 8.1875 12.5 C6.82625 12.2215625 6.82625 12.2215625 5.4375 11.9375 C2.0366925 11.27576292 2.0366925 11.27576292 -1.8125 12.5 C-1.8125 9.2 -1.8125 5.9 -1.8125 2.5 C-2.4725 2.5 -3.1325 2.5 -3.8125 2.5 C-3.8125 5.8 -3.8125 9.1 -3.8125 12.5 C-5.4625 12.5 -7.1125 12.5 -8.8125 12.5 C-8.4825 11.84 -8.1525 11.18 -7.8125 10.5 C-6.8225 10.83 -5.8325 11.16 -4.8125 11.5 C-4.8125 7.87 -4.8125 4.24 -4.8125 0.5 C-2.8125 -0.5 -2.8125 -0.5 0 0 Z " fill="#ECE4F0" transform="translate(211.8125,268.5)"/>
<path d="M0 0 C0.80821835 3.54249487 1.12218996 6.80240693 1.11352539 10.43286133 C1.11341209 12.02394463 1.11341209 12.02394463 1.11329651 13.64717102 C1.10813522 14.7806749 1.10297394 15.91417877 1.09765625 17.08203125 C1.0962413 18.25134689 1.09482635 19.42066254 1.09336853 20.62541199 C1.08777793 24.35446751 1.07522709 28.08346267 1.0625 31.8125 C1.05748379 34.34309809 1.05292109 36.87369712 1.04882812 39.40429688 C1.03781157 45.60288513 1.02108273 51.80143825 1 58 C0.34 58 -0.32 58 -1 58 C-1.01030746 57.33014572 -1.02061493 56.66029144 -1.03123474 55.97013855 C-1.13924336 49.01116054 -1.25384605 42.0523135 -1.37231445 35.09350586 C-1.41568138 32.49490087 -1.45735515 29.89626705 -1.49731445 27.29760742 C-1.55497423 23.56680608 -1.61868129 19.83615006 -1.68359375 16.10546875 C-1.70030624 14.93976852 -1.71701874 13.7740683 -1.73423767 12.57304382 C-1.75418289 11.49214981 -1.77412811 10.4112558 -1.79467773 9.29760742 C-1.81022202 8.34496506 -1.8257663 7.39232269 -1.84178162 6.41081238 C-1.90718078 3.85608802 -1.90718078 3.85608802 -3 1 C-1 0 -1 0 0 0 Z " fill="#C1B0D9" transform="translate(157,219)"/>
<path d="M0 0 C1.65 0.33 3.3 0.66 5 1 C5.33 2.65 5.66 4.3 6 6 C6.66 6 7.32 6 8 6 C8 8.31 8 10.62 8 13 C0.52258065 14.3483871 0.52258065 14.3483871 -1.78125 12.8125 C-3.40332101 10.40018927 -3.13930433 9.14654537 -2.6875 6.3125 C-2.56761719 5.50425781 -2.44773437 4.69601562 -2.32421875 3.86328125 C-2.21722656 3.24839844 -2.11023438 2.63351562 -2 2 C-1.34 2 -0.68 2 0 2 C0 1.34 0 0.68 0 0 Z " fill="#B2AABE" transform="translate(263,268)"/>
<path d="M0 0 C3.375 -0.125 3.375 -0.125 7 0 C9.49505962 2.49505962 9.35948376 3.67328888 9.625 7.125 C9.69976562 8.03507812 9.77453125 8.94515625 9.8515625 9.8828125 C9.90054688 10.58148438 9.94953125 11.28015625 10 12 C6.78548731 13.60725635 3.56387464 13.05748185 0 13 C0 8.71 0 4.42 0 0 Z M3 3 C3 3.99 3 4.98 3 6 C3.66 5.67 4.32 5.34 5 5 C5 4.34 5 3.68 5 3 C4.34 3 3.68 3 3 3 Z " fill="#F6EFFA" transform="translate(173,268)"/>
<path d="M0 0 C1.45713624 2.15101064 2 3.40286494 2 6 C2.061875 6.825 2.12375 7.65 2.1875 8.5 C2.125625 9.325 2.06375 10.15 2 11 C-1 13 -1 13 -3.5625 12.6875 C-6 12 -6 12 -8 11 C-9.17945005 6.67534981 -9.15042257 3.96130474 -7 0 C-4.25509788 -1.37245106 -2.87939419 -0.93580311 0 0 Z M-4 2 C-4 2.66 -4 3.32 -4 4 C-3.34 3.67 -2.68 3.34 -2 3 C-2.66 2.67 -3.32 2.34 -4 2 Z M-4 7 C-4 7.66 -4 8.32 -4 9 C-3.01 8.67 -2.02 8.34 -1 8 C-1.99 7.67 -2.98 7.34 -4 7 Z " fill="#B0A7BC" transform="translate(329,269)"/>
<path d="M0 0 C0 0.99 0 1.98 0 3 C-0.99 3.495 -0.99 3.495 -2 4 C-2 4.66 -2 5.32 -2 6 C-1.34 6 -0.68 6 0 6 C0 8.33333333 0 10.66666667 0 13 C-2.97 13 -5.94 13 -9 13 C-9.33 9.04 -9.66 5.08 -10 1 C-6.78548731 -0.60725635 -3.56387464 -0.05748185 0 0 Z " fill="#BAAFC8" transform="translate(319,268)"/>
<path d="M0 0 C2.97 0 5.94 0 9 0 C9 0.99 9 1.98 9 3 C7.35 3 5.7 3 4 3 C4.99 3.33 5.98 3.66 7 4 C7.73046875 6.06640625 7.73046875 6.06640625 8.1875 8.5625 C8.34605469 9.38878906 8.50460937 10.21507812 8.66796875 11.06640625 C8.77753906 11.70449219 8.88710938 12.34257812 9 13 C6.03 13 3.06 13 0 13 C0 8.71 0 4.42 0 0 Z " fill="#A99CBA" transform="translate(360,268)"/>
<path d="M0 0 C1.98 0.495 1.98 0.495 4 1 C4.33 2.65 4.66 4.3 5 6 C5.99 4.02 6.98 2.04 8 0 C8.99 0 9.98 0 11 0 C10.45144652 4.571279 9.58255197 8.67435795 8 13 C6.35 12.67 4.7 12.34 3 12 C2.34 9.03 1.68 6.06 1 3 C0.34 3 -0.32 3 -1 3 C-0.67 2.01 -0.34 1.02 0 0 Z " fill="#B3AAC5" transform="translate(297,268)"/>
<path d="M0 0 C1.32 0 2.64 0 4 0 C5.25664978 2.90600261 6 4.79604584 6 8 C6.99 7.67 7.98 7.34 9 7 C9 8.65 9 10.3 9 12 C7.68 11.67 6.36 11.34 5 11 C4.67 11.66 4.34 12.32 4 13 C2.68 13 1.36 13 0 13 C0 8.71 0 4.42 0 0 Z " fill="#C0B9C9" transform="translate(371,268)"/>
<path d="M0 0 C0.66 0.33 1.32 0.66 2 1 C0.02 3.97 0.02 3.97 -2 7 C-0.453125 6.7215625 -0.453125 6.7215625 1.125 6.4375 C4.76148442 6.02692918 7.45437009 6.221691 11 7 C11 7.33 11 7.66 11 8 C0.11 8 -10.78 8 -22 8 C-22 7.67 -22 7.34 -22 7 C-21.10796875 6.87882812 -20.2159375 6.75765625 -19.296875 6.6328125 C-17.54117188 6.38144531 -17.54117188 6.38144531 -15.75 6.125 C-14.58984375 5.96257812 -13.4296875 5.80015625 -12.234375 5.6328125 C-8.18793636 4.84111798 -5.90403014 3.90403014 -3 1 C-2.01 0.67 -1.02 0.34 0 0 Z " fill="#7F4FE0" transform="translate(110,291)"/>
<path d="M0 0 C3.3 0 6.6 0 10 0 C10 0.99 10 1.98 10 3 C9.01 3 8.02 3 7 3 C7 6.3 7 9.6 7 13 C5.68 13 4.36 13 3 13 C3 9.7 3 6.4 3 3 C1.68 3 0.36 3 -1 3 C-0.67 2.01 -0.34 1.02 0 0 Z " fill="#AEA1BB" transform="translate(333,268)"/>
<path d="M0 0 C1.32 0 2.64 0 4 0 C4.33 2.97 4.66 5.94 5 9 C5.66 9 6.32 9 7 9 C7.33 9.99 7.66 10.98 8 12 C6.35 11.67 4.7 11.34 3 11 C3 11.66 3 12.32 3 13 C2.01 13 1.02 13 0 13 C0 8.71 0 4.42 0 0 Z " fill="#E3DEEB" transform="translate(345,268)"/>
<path d="M0 0 C0.99 0 1.98 0 3 0 C5 3 5 3 5 6 C4.34 6 3.68 6 3 6 C2.34 7.32 1.68 8.64 1 10 C1.99 10.33 2.98 10.66 4 11 C1.09399739 12.25664978 -0.79604584 13 -4 13 C-4 11.02 -4 9.04 -4 7 C-3.34 7 -2.68 7 -2 7 C-1.855625 6.401875 -1.71125 5.80375 -1.5625 5.1875 C-1.1127561 3.43849596 -0.57107659 1.71322977 0 0 Z " fill="#C4B1D1" transform="translate(188,268)"/>
<path d="M0 0 C0.66 0.33 1.32 0.66 2 1 C1.505 1.433125 1.01 1.86625 0.5 2.3125 C-1.33218192 3.99740483 -1.33218192 3.99740483 -1 7 C0.41633336 7.16947579 1.83308533 7.33545507 3.25 7.5 C4.03890625 7.5928125 4.8278125 7.685625 5.640625 7.78125 C8.26890397 8.06154619 8.26890397 8.06154619 12 8 C12 8.66 12 9.32 12 10 C8.28350139 11.85824931 4.05491447 11.45382037 0 11 C-2.92908678 9.92506271 -5.29813463 8.60110541 -8 7 C-6.62141149 4.24282298 -4.62533685 3.53678254 -2 2 C-1.34 1.34 -0.68 0.68 0 0 Z " fill="#6E34E8" transform="translate(78,288)"/>
<path d="M0 0 C2.97 0 5.94 0 9 0 C9 0.66 9 1.32 9 2 C8.01 2 7.02 2 6 2 C6 5.3 6 8.6 6 12 C4.68 12 3.36 12 2 12 C2 8.7 2 5.4 2 2 C1.34 2 0.68 2 0 2 C0 1.34 0 0.68 0 0 Z " fill="#C1B6CD" transform="translate(384,269)"/>
<path d="M0 0 C1.32 0.33 2.64 0.66 4 1 C4 2.32 4 3.64 4 5 C4.66 5 5.32 5 6 5 C6 7.31 6 9.62 6 12 C4.125 11.6875 4.125 11.6875 2 11 C1.34 10.01 0.68 9.02 0 8 C-0.99 7.34 -1.98 6.68 -3 6 C-2.01 5.34 -1.02 4.68 0 4 C0 2.68 0 1.36 0 0 Z " fill="#CFC5DA" transform="translate(265,269)"/>
<path d="M0 0 C0.66 0 1.32 0 2 0 C3.26438344 4.91704669 2.58345001 8.24964998 1 13 C1 12.34 1 11.68 1 11 C0.34 11 -0.32 11 -1 11 C-1 11.99 -1 12.98 -1 14 C-1.99 14 -2.98 14 -4 14 C-3.67 10.7 -3.34 7.4 -3 4 C-2.34 4 -1.68 4 -1 4 C-0.67 2.68 -0.34 1.36 0 0 Z " fill="#F0E5FB" transform="translate(62,210)"/>
<path d="M0 0 C1.9375 0.1875 1.9375 0.1875 4 1 C5.25 3.0625 5.25 3.0625 6 5 C5.01 5.66 4.02 6.32 3 7 C2.27617533 9.05925139 2.27617533 9.05925139 2 11 C0.68 11 -0.64 11 -2 11 C-1.85957123 9.35369672 -1.71250671 7.70795821 -1.5625 6.0625 C-1.48128906 5.14597656 -1.40007812 4.22945313 -1.31640625 3.28515625 C-1 1 -1 1 0 0 Z " fill="#EBE6F6" transform="translate(285,269)"/>
<path d="M0 0 C0.99 0 1.98 0 3 0 C3 4.29 3 8.58 3 13 C1.68 13 0.36 13 -1 13 C-1.66 11.02 -2.32 9.04 -3 7 C-2.34 7 -1.68 7 -1 7 C-1.020625 6.030625 -1.04125 5.06125 -1.0625 4.0625 C-1 1 -1 1 0 0 Z " fill="#D6C6DE" transform="translate(235,268)"/>
<path d="M0 0 C7.59 0 15.18 0 23 0 C22.67 0.66 22.34 1.32 22 2 C15.07 1.67 8.14 1.34 1 1 C1 2.98 1 4.96 1 7 C1.66 7 2.32 7 3 7 C3.33 7.99 3.66 8.98 4 10 C3.34 10.66 2.68 11.32 2 12 C1.29289322 13.64991582 0.62056011 15.31562256 0 17 C-1 15 -1 15 -0.0625 11.875 C0.288125 10.92625 0.63875 9.9775 1 9 C0.67 8.67 0.34 8.34 0 8 C0 5.36 0 2.72 0 0 Z " fill="#DFD3EF" transform="translate(395,218)"/>
<path d="M0 0 C2.31 0 4.62 0 7 0 C7 0.33 7 0.66 7 1 C5.02 1 3.04 1 1 1 C1.33 3.31 1.66 5.62 2 8 C3.65 8 5.3 8 7 8 C7.33 9.65 7.66 11.3 8 13 C5.36 13 2.72 13 0 13 C0 8.71 0 4.42 0 0 Z " fill="#9A8CB0" transform="translate(173,268)"/>
<path d="M0 0 C3.63 0 7.26 0 11 0 C9.68 0.99 8.36 1.98 7 3 C6.67 2.34 6.34 1.68 6 1 C5.34 1.66 4.68 2.32 4 3 C4.99 5.97 5.98 8.94 7 12 C6.34 12.66 5.68 13.32 5 14 C3.35 9.38 1.7 4.76 0 0 Z " fill="#E5DCF6" transform="translate(96,201)"/>
<path d="M0 0 C2.625 0.1875 2.625 0.1875 5.625 2.1875 C5.91796875 4.7890625 5.91796875 4.7890625 5.8125 7.8125 C5.78542969 8.81539063 5.75835937 9.81828125 5.73046875 10.8515625 C5.69566406 11.62242187 5.66085938 12.39328125 5.625 13.1875 C5.295 13.1875 4.965 13.1875 4.625 13.1875 C4.625 11.2075 4.625 9.2275 4.625 7.1875 C2.975 7.1875 1.325 7.1875 -0.375 7.1875 C-0.045 5.5375 0.285 3.8875 0.625 2.1875 C-0.695 1.8575 -2.015 1.5275 -3.375 1.1875 C-2.375 0.1875 -2.375 0.1875 0 0 Z " fill="#988FB1" transform="translate(246.375,267.8125)"/>
<path d="M0 0 C0.99 0 1.98 0 3 0 C3 4.29 3 8.58 3 13 C2.01 13 1.02 13 0 13 C0 8.71 0 4.42 0 0 Z " fill="#D7C6E4" transform="translate(279,268)"/>
<path d="M0 0 C-0.66 0 -1.32 0 -2 0 C-2 3.63 -2 7.26 -2 11 C-1.34 11.33 -0.68 11.66 0 12 C-0.99 12 -1.98 12 -3 12 C-3 8.7 -3 5.4 -3 2 C-3.66 2 -4.32 2 -5 2 C-5 5.3 -5 8.6 -5 12 C-6.65 12 -8.3 12 -10 12 C-9.67 11.34 -9.34 10.68 -9 10 C-8.01 10.33 -7.02 10.66 -6 11 C-6 7.37 -6 3.74 -6 0 C-3.50907189 -1.24546405 -2.58919267 -0.7767578 0 0 Z " fill="#86749D" transform="translate(213,269)"/>
<path d="M0 0 C0.99 0 1.98 0 3 0 C3 4.29 3 8.58 3 13 C2.01 13 1.02 13 0 13 C0 8.71 0 4.42 0 0 Z " fill="#D0CADC" transform="translate(222,268)"/>
<path d="M0 0 C0.99 0.33 1.98 0.66 3 1 C-0.04830876 6.20752746 -3.87667621 10.70718615 -9 14 C-9.99 13.67 -10.98 13.34 -12 13 C-10.47005208 11.76302083 -8.94010417 10.52604167 -7.41015625 9.2890625 C-5.86733563 8.0333609 -5.86733563 8.0333609 -5 6 C-4.34 6 -3.68 6 -3 6 C-3 5.34 -3 4.68 -3 4 C-2.34 3.34 -1.68 2.68 -1 2 C-0.67 1.34 -0.34 0.68 0 0 Z " fill="#A67FF4" transform="translate(125,276)"/>
<path d="M0 0 C0.66 0.33 1.32 0.66 2 1 C0.15025907 5.22797927 0.15025907 5.22797927 -2 7 C-5.71325796 7.54496736 -9.27249265 7.34704379 -13 7 C-10.96688964 5.97919145 -8.93355632 4.96873239 -6.875 4 C-4.83448849 3.02859623 -4.83448849 3.02859623 -3 1 C-2.01 0.67 -1.02 0.34 0 0 Z " fill="#8551EE" transform="translate(110,291)"/>
<path d="M0 0 C1.32 0.33 2.64 0.66 4 1 C4 2.98 4 4.96 4 7 C3.34 7 2.68 7 2 7 C2.33 8.32 2.66 9.64 3 11 C2.34 10.67 1.68 10.34 1 10 C0.67 10.66 0.34 11.32 0 12 C-0.66 11.67 -1.32 11.34 -2 11 C-1.34 7.37 -0.68 3.74 0 0 Z " fill="#908AA6" transform="translate(231,269)"/>
<path d="M0 0 C1.3125 2.0625 1.3125 2.0625 2 4 C1.236875 3.835 0.47375 3.67 -0.3125 3.5 C-3.03596236 2.90854604 -3.03596236 2.90854604 -6 3 C-6.66 3.66 -7.32 4.32 -8 5 C-7.625 2.5625 -7.625 2.5625 -7 0 C-4.25509788 -1.37245106 -2.87939419 -0.93580311 0 0 Z " fill="#A799B8" transform="translate(329,269)"/>
<path d="M0 0 C0.66 0 1.32 0 2 0 C2 3.96 2 7.92 2 12 C0.68 11.67 -0.64 11.34 -2 11 C-1.40049704 7.31733897 -0.75241109 3.65456815 0 0 Z " fill="#FCF6FD" transform="translate(205,268)"/>
<path d="M0 0 C1.95216435 1.95216435 2.84826645 3.53199953 4 6 C5.65 5.67 7.3 5.34 9 5 C7.6875 7.5 7.6875 7.5 6 10 C5.01 10 4.02 10 3 10 C0 3.375 0 3.375 0 0 Z " fill="#7548C9" transform="translate(58,279)"/>
<path d="M0 0 C1.98 0 3.96 0 6 0 C6 1.98 6 3.96 6 6 C4.02 6 2.04 6 0 6 C-0.33 5.34 -0.66 4.68 -1 4 C0.65 4 2.3 4 4 4 C4 3.34 4 2.68 4 2 C2.68 2 1.36 2 0 2 C0 1.34 0 0.68 0 0 Z " fill="#F2EBF8" transform="translate(245,275)"/>
<path d="M0 0 C1.32 0.33 2.64 0.66 4 1 C2.52307692 5.67692308 2.52307692 5.67692308 -0.125 7.3125 C-1.053125 7.6528125 -1.053125 7.6528125 -2 8 C-2 6.02 -2 4.04 -2 2 C-1.34 2 -0.68 2 0 2 C0 1.34 0 0.68 0 0 Z " fill="#9C95AE" transform="translate(263,268)"/>
<path d="M0 0 C0.99 0.66 1.98 1.32 3 2 C1.71283353 3.00578589 0.42011342 4.00446798 -0.875 5 C-1.95394531 5.8353125 -1.95394531 5.8353125 -3.0546875 6.6875 C-5 8 -5 8 -7 8 C-7 7.34 -7 6.68 -7 6 C-6.01 6 -5.02 6 -4 6 C-3.71125 5.195625 -3.4225 4.39125 -3.125 3.5625 C-2 1 -2 1 0 0 Z " fill="#8760BF" transform="translate(149,290)"/>
<path d="M0 0 C1.78257471 3.23091667 2 5.32518002 2 9 C0.68 9 -0.64 9 -2 9 C-2.33 7.02 -2.66 5.04 -3 3 C-2.34 3 -1.68 3 -1 3 C-0.67 2.01 -0.34 1.02 0 0 Z " fill="#DED7E4" transform="translate(323,271)"/>
<path d="M0 0 C0.66 0 1.32 0 2 0 C2 3.63 2 7.26 2 11 C1.01 11 0.02 11 -1 11 C-1.33 10.01 -1.66 9.02 -2 8 C-1.34 7.34 -0.68 6.68 0 6 C0.16681109 2.91652174 0.16681109 2.91652174 0 0 Z " fill="#F8EFFE" transform="translate(293,269)"/>
<path d="M0 0 C3.3 0 6.6 0 10 0 C9.01 0.495 9.01 0.495 8 1 C8 2.98 8 4.96 8 7 C6 6 6 6 4.5625 4.0625 C2.99595257 1.76022448 2.99595257 1.76022448 0 0 Z " fill="#72699E" transform="translate(285,268)"/>
<path d="M0 0 C1.37562854 1.28965176 2.70766393 2.62689293 4 4 C4 4.66 4 5.32 4 6 C1.03 5.505 1.03 5.505 -2 5 C-2 4.01 -2 3.02 -2 2 C-1.34 2 -0.68 2 0 2 C0 1.34 0 0.68 0 0 Z " fill="#A092AF" transform="translate(216,275)"/>
<path d="M0 0 C0 0.99 0 1.98 0 3 C-1.65 3 -3.3 3 -5 3 C-5.33 3.99 -5.66 4.98 -6 6 C-6.66 4.35 -7.32 2.7 -8 1 C-2.25 0 -2.25 0 0 0 Z " fill="#CEC3D8" transform="translate(369,268)"/>
<path d="M0 0 C0.66 0.33 1.32 0.66 2 1 C2.4140625 3.28515625 2.4140625 3.28515625 2.625 6.0625 C2.69976562 6.98160156 2.77453125 7.90070313 2.8515625 8.84765625 C2.90054688 9.55792969 2.94953125 10.26820313 3 11 C1.79371992 8.66785852 0.8345262 6.50357861 0 4 C-0.99 4 -1.98 4 -3 4 C-2.01 2.68 -1.02 1.36 0 0 Z " fill="#A299AF" transform="translate(180,269)"/>
<path d="M0 0 C0.99 0 1.98 0 3 0 C3.33 1.98 3.66 3.96 4 6 C2.02 5.34 0.04 4.68 -2 4 C-2 3.34 -2 2.68 -2 2 C-1.34 2 -0.68 2 0 2 C0 1.34 0 0.68 0 0 Z " fill="#E9E3ED" transform="translate(191,274)"/>
<path d="M0 0 C0.99 0 1.98 0 3 0 C3 1.65 3 3.3 3 5 C2.01 5.33 1.02 5.66 0 6 C-0.66 5.34 -1.32 4.68 -2 4 C-1.34 2.68 -0.68 1.36 0 0 Z " fill="#B198BD" transform="translate(305,268)"/>
<path d="M0 0 C0.33 0.99 0.66 1.98 1 3 C1.66 3 2.32 3 3 3 C3.33 3.99 3.66 4.98 4 6 C3.34 6.66 2.68 7.32 2 8 C1.29289322 9.64991582 0.62056011 11.31562256 0 13 C-0.33 12.34 -0.66 11.68 -1 11 C-0.505 9.6078125 -0.505 9.6078125 0 8.1875 C1.04501557 4.85651287 0.96712471 3.28822401 0 0 Z " fill="#B9AECA" transform="translate(395,222)"/>
<path d="M0 0 C1.65 0 3.3 0 5 0 C5 1.32 5 2.64 5 4 C3.02 4 1.04 4 -1 4 C-0.67 2.68 -0.34 1.36 0 0 Z " fill="#A39CB2" transform="translate(175,276)"/>
<path d="M0 0 C1.33332095 2.6666419 0.67102033 4.16680303 0 7 C-0.66 7 -1.32 7 -2 7 C-2.66 8.32 -3.32 9.64 -4 11 C-3.67 8.69 -3.34 6.38 -3 4 C-2.34 4 -1.68 4 -1 4 C-0.67 2.68 -0.34 1.36 0 0 Z " fill="#978AAF" transform="translate(62,210)"/>
<path d="M0 0 C3.55780196 0.60990891 6.6828589 1.5783681 10 3 C9.34 3.66 8.68 4.32 8 5 C5.36 3.68 2.72 2.36 0 1 C0 0.67 0 0.34 0 0 Z " fill="#4C1EBD" transform="translate(68,295)"/>
<path d="M0 0 C0.99 0 1.98 0 3 0 C5 3 5 3 5 6 C4.34 6 3.68 6 3 6 C2.67 6.66 2.34 7.32 2 8 C1.06576355 4.98968256 0.95550089 4.13349732 2 1 C1.34 0.67 0.68 0.34 0 0 Z " fill="#A497BB" transform="translate(188,268)"/>
<path d="M0 0 C0.66 0 1.32 0 2 0 C2 2.31 2 4.62 2 7 C1.01 6.34 0.02 5.68 -1 5 C-0.67 3.35 -0.34 1.7 0 0 Z " fill="#D7CEE0" transform="translate(205,268)"/>
<path d="M0 0 C1.32 0 2.64 0 4 0 C4 0.99 4 1.98 4 3 C3.34 3 2.68 3 2 3 C1.67 3.66 1.34 4.32 1 5 C1 4.34 1 3.68 1 3 C0.01 3.33 -0.98 3.66 -2 4 C-2 3.34 -2 2.68 -2 2 C-1.34 2 -0.68 2 0 2 C0 1.34 0 0.68 0 0 Z " fill="#9283AE" transform="translate(216,268)"/>
<path d="M0 0 C1.125 1.625 1.125 1.625 2 4 C1.125 7.25 1.125 7.25 0 10 C-0.66 9.01 -1.32 8.02 -2 7 C-1.125 3.3125 -1.125 3.3125 0 0 Z " fill="#E8DCF9" transform="translate(63,210)"/>
</svg>
